{
  "accessors": [
    {
      "bufferView": 2,
      "componentType": 5126,
      "count": 8024,
      "max": [
        1.102349042892456,
        1.3719840049743652,
        0.2858630120754242
      ],
      "min": [
        -2.0665550231933594,
        -1.366232991218567,
        -4.276042461395264
      ],
      "type": "VEC3"
    },
    {
      "bufferView": 2,
      "byteOffset": 96288,
      "componentType": 5126,
      "count": 8024,
      "max": [
        0.9995773434638977,
        1.0,
        1.0
      ],
      "min": [
        -0.9994386434555054,
        -1.0,
        -1.0
      ],
      "type": "VEC3"
    },
    {
      "bufferView": 3,
      "componentType": 5126,
      "count": 8024,
      "max": [
        1.0,
        0.9999932050704956,
        1.0,
        1.0
      ],
      "min": [
        -1.0,
        -0.9999773502349854,
        -1.0,
        -1.0
      ],
      "type": "VEC4"
    },
    {
      "bufferView": 1,
      "componentType": 5126,
      "count": 8024,
      "max": [
        0.9863680005073547,
        0.9841009974479675
      ],
      "min": [
        0.006922000087797642,
        0.009999999776482582
      ],
      "type": "VEC2"
    },
    {
      "bufferView": 1,
      "byteOffset": 64192,
      "componentType": 5126,
      "count": 8024,
      "max": [
        0.9863680005073547,
        0.9841009974479675
      ],
      "min": [
        0.006922000087797642,
        0.009999999776482582
      ],
      "type": "VEC2"
    },
    {
      "bufferView": 0,
      "componentType": 5125,
      "count": 38268,
      "type": "SCALAR"
    }
  ],
  "asset": {
    "extras": {
      "author": "aksinia0987 (https://sketchfab.com/aksinia0987)",
      "license": "CC-BY-4.0 (http://creativecommons.org/licenses/by/4.0/)",
      "source": "https://sketchfab.com/3d-models/barrel-0c1070140dee4835a954650e4e84e56b",
      "title": "Barrel"
    },
    "generator": "Sketchfab-10.78.0",
    "version": "2.0"
  },
  "bufferViews": [
    {
      "buffer": 0,
      "byteLength": 153072,
      "name": "floatBufferViews",
      "target": 34963
    },
    {
      "buffer": 0,
      "byteLength": 128384,
      "byteOffset": 153072,
      "byteStride": 8,
      "name": "floatBufferViews",
      "target": 34962
    },
    {
      "buffer": 0,
      "byteLength": 192576,
      "byteOffset": 281456,
      "byteStride": 12,
      "name": "floatBufferViews",
      "target": 34962
    },
    {
      "buffer": 0,
      "byteLength": 128384,
      "byteOffset": 474032,
      "byteStride": 16,
      "name": "floatBufferViews",
      "target": 34962
    }
  ],
  "buffers": [
    {
      "byteLength": 602416,
      "uri": "scene.bin"
    }
  ],
  "images": [
    {
      "uri": "textures/lambert5_baseColor.png"
    },
    {
      "uri": "textures/lambert5_metallicRoughness.png"
    },
    {
      "uri": "textures/lambert5_normal.png"
    }
  ],
  "materials": [
    {
      "doubleSided": true,
      "name": "lambert5",
      "normalTexture": {
        "index": 2
      },
      "occlusionTexture": {
        "index": 1
      },
      "pbrMetallicRoughness": {
        "baseColorTexture": {
          "index": 0
        },
        "metallicRoughnessTexture": {
          "index": 1
        }
      }
    }
  ],
  "meshes": [
    {
      "name": "Group62245_lambert5_0",
      "primitives": [
        {
          "attributes": {
            "NORMAL": 1,
            "POSITION": 0,
            "TANGENT": 2,
            "TEXCOORD_0": 3,
            "TEXCOORD_1": 4
          },
          "indices": 5,
          "material": 0,
          "mode": 4
        }
      ]
    }
  ],
  "nodes": [
    {
      "children": [
        1
      ],
      "matrix": [
        1.0,
        0.0,
        0.0,
        0.0,
        0.0,
        2.220446049250313e-16,
        -1.0,
        0.0,
        0.0,
        1.0,
        2.220446049250313e-16,
        0.0,
        0.0,
        0.0,
        0.0,
        1.0
      ],
      "name": "Sketchfab_model"
    },
    {
      "children": [
        2
      ],
      "matrix": [
        1.0,
        0.0,
        0.0,
        0.0,
        0.0,
        0.0,
        1.0,
        0.0,
        0.0,
        -1.0,
        0.0,
        0.0,
        0.0,
        0.0,
        0.0,
        1.0
      ],
      "name": "d416becb867540be974517443127a424.fbx"
    },
    {
      "children": [
        3
      ],
      "name": "RootNode"
    },
    {
      "children": [
        4
      ],
      "name": "Group62245"
    },
    {
      "mesh": 0,
      "name": "Group62245_lambert5_0"
    }
  ],
  "samplers": [
    {
      "magFilter": 9729,
      "minFilter": 9987,
      "wrapS": 10497,
      "wrapT": 10497
    }
  ],
  "scene": 0,
  "scenes": [
    {
      "name": "Sketchfab_Scene",
      "nodes": [
        0
      ]
    }
  ],
  "textures": [
    {
      "sampler": 0,
      "source": 0
    },
    {
      "sampler": 0,
      "source": 1
    },
    {
      "sampler": 0,
      "source": 2
    }
  ]
}
